<?xml version="1.0" encoding="UTF-8" standalone="no"?>
<!DOCTYPE svg PUBLIC "-//W3C//DTD SVG 1.1//EN" "http://www.w3.org/Graphics/SVG/1.1/DTD/svg11.dtd">
<svg width="100%" height="100%" viewBox="0 0 2481 2481" version="1.1" xmlns="http://www.w3.org/2000/svg" xmlns:xlink="http://www.w3.org/1999/xlink" xml:space="preserve" xmlns:serif="http://www.serif.com/" style="fill-rule:evenodd;clip-rule:evenodd;stroke-linejoin:round;stroke-miterlimit:2;">
    <path d="M2480.32,248.031C2480.32,111.139 2369.18,0 2232.28,0L248.031,0C111.139,0 0,111.139 0,248.031L0,2232.28C0,2369.18 111.139,2480.32 248.031,2480.32L2232.28,2480.32C2369.18,2480.32 2480.32,2369.18 2480.32,2232.28L2480.32,248.031Z" style="fill:rgb(204,91,78);"/>
    <g id="Mace" transform="matrix(1,0,0,1,-55.6291,55.6291)">
        <g id="Mace-Head" serif:id="Mace Head" transform="matrix(0.842326,0,0,0.842326,471.492,-80.4116)">
            <g transform="matrix(0.881423,0,0,0.881423,-141.81,150.8)">
                <circle cx="1567.88" cy="1235.91" r="624.191" style="fill:white;"/>
            </g>
            <g transform="matrix(8.45401e-18,0.881548,-1.18412,9.75579e-17,3199.96,-24.5435)">
                <path d="M1434.64,851.201L1629.11,1240.16L1240.16,1240.16L1434.64,851.201Z" style="fill:white;"/>
            </g>
            <g transform="matrix(0.881548,4.55253e-17,2.50512e-17,1.18412,-24.5435,-719.642)">
                <path d="M1434.64,851.201L1629.11,1240.16L1240.16,1240.16L1434.64,851.201Z" style="fill:white;"/>
            </g>
            <g transform="matrix(9.95045e-17,-0.881548,1.18412,4.74555e-17,-719.642,2504.86)">
                <path d="M1434.64,851.201L1629.11,1240.16L1240.16,1240.16L1434.64,851.201Z" style="fill:white;"/>
            </g>
            <g transform="matrix(-0.881548,-1.53484e-16,1.19962e-16,-1.18412,2504.86,3199.96)">
                <path d="M1434.64,851.201L1629.11,1240.16L1240.16,1240.16L1434.64,851.201Z" style="fill:white;"/>
            </g>
            <g transform="matrix(-0.623349,0.623349,-0.837302,-0.837302,3520.22,1731.67)">
                <path d="M1434.64,851.201L1629.11,1240.16L1240.16,1240.16L1434.64,851.201Z" style="fill:white;"/>
            </g>
            <g transform="matrix(0.623349,0.623349,-0.837302,0.837302,1731.67,-1039.91)">
                <path d="M1434.64,851.201L1629.11,1240.16L1240.16,1240.16L1434.64,851.201Z" style="fill:white;"/>
            </g>
            <g transform="matrix(0.623349,-0.623349,0.837302,0.837302,-1039.91,748.649)">
                <path d="M1434.64,851.201L1629.11,1240.16L1240.16,1240.16L1434.64,851.201Z" style="fill:white;"/>
            </g>
        </g>
        <g id="Handle" transform="matrix(0.495695,-0.495695,0.974964,0.974964,-1390.08,632.117)">
            <path d="M1925.53,1580.12C1925.53,1561.06 1895.09,1545.59 1857.6,1545.59L344.587,1545.59C307.092,1545.59 276.651,1561.06 276.651,1580.12L276.651,1741.31C276.651,1760.38 307.092,1775.85 344.587,1775.85L1857.6,1775.85C1895.09,1775.85 1925.53,1760.38 1925.53,1741.31L1925.53,1580.12Z" style="fill:white;"/>
        </g>
        <g id="Handle--Thinner-" serif:id="Handle (Thinner)" transform="matrix(0.707107,-0.707107,0.682475,0.682475,-962.828,1176.35)">
            <path d="M1925.53,1580.12C1925.53,1561.06 1910.6,1545.59 1892.2,1545.59L309.988,1545.59C291.589,1545.59 276.651,1561.06 276.651,1580.12L276.651,1741.31C276.651,1760.38 291.589,1775.85 309.988,1775.85L1892.2,1775.85C1910.6,1775.85 1925.53,1760.38 1925.53,1741.31L1925.53,1580.12Z" style="fill:white;"/>
        </g>
    </g>
</svg>
